<?xml version="1.0" standalone="no"?><!DOCTYPE svg PUBLIC "-//W3C//DTD SVG 1.1//EN" "http://www.w3.org/Graphics/SVG/1.1/DTD/svg11.dtd"><svg t="1677254738460" class="icon" viewBox="0 0 1024 1024" version="1.1" xmlns="http://www.w3.org/2000/svg" p-id="4666" xmlns:xlink="http://www.w3.org/1999/xlink" width="300" height="300"><path d="M529.143158 7.436293l347.212925 397.874796a21.748783 21.748783 0 0 1-16.375554 36.077393h-170.66398a21.492915 21.492915 0 0 0-21.492915 18.678367c-12.793402 92.624229-90.065549 502.268955-455.95684 562.909679a21.748783 21.748783 0 0 1-17.654895-38.380206c62.687669-49.126663 144.56544-144.309572 167.593564-313.694212a1571.285609 1571.285609 0 0 0 12.793402-207.508977 22.260519 22.260519 0 0 0-21.748783-22.260519H165.298811a21.748783 21.748783 0 0 1-16.375554-36.077393L496.39205 7.436293a21.748783 21.748783 0 0 1 32.751108 0z" p-id="4667"></path></svg>