<?xml version="1.0" standalone="no"?><!DOCTYPE svg PUBLIC "-//W3C//DTD SVG 1.1//EN" "http://www.w3.org/Graphics/SVG/1.1/DTD/svg11.dtd"><svg t="1676140026164" class="icon" viewBox="0 0 1024 1024" version="1.1" xmlns="http://www.w3.org/2000/svg" p-id="3240" xmlns:xlink="http://www.w3.org/1999/xlink" width="300" height="300"><path d="M887.466667 522.666667c-21.333333-12.8-46.933333-8.533333-66.133334 8.533333l-21.333333 21.333333 72.533333 72.533334 21.333334-21.333334c23.466667-25.6 21.333333-64-6.4-81.066666zM599.466667 753.066667c-2.133333 2.133333-4.266667 4.266667-4.266667 8.533333l-10.666667 61.866667c-2.133333 10.666667 6.4 17.066667 17.066667 17.066666l61.866667-10.666666c2.133333 0 6.4-2.133333 8.533333-4.266667l179.2-179.2-72.533333-72.533333-179.2 179.2zM693.333333 561.066667c12.8-19.2 6.4-46.933333-12.8-59.733334-29.866667-19.2-59.733333-32-91.733333-40.533333 59.733333-36.266667 100.266667-102.4 100.266667-177.066667 0-115.2-93.866667-209.066667-209.066667-209.066666s-209.066667 93.866667-209.066667 209.066666c0 74.666667 38.4 138.666667 98.133334 177.066667-151.466667 40.533333-264.533333 177.066667-264.533334 341.333333 0 23.466667 19.2 42.666667 42.666667 42.666667s42.666667-19.2 42.666667-42.666667c0-147.2 121.6-266.666667 270.933333-266.666666H490.666667c51.2 0 102.4 14.933333 145.066666 42.666666 19.2 8.533333 44.8 4.266667 57.6-17.066666z m-213.333333-401.066667c68.266667 0 123.733333 55.466667 123.733333 123.733333s-55.466667 123.733333-123.733333 123.733334-123.733333-55.466667-123.733333-123.733334 55.466667-123.733333 123.733333-123.733333z" p-id="3241"></path></svg>