<?xml version="1.0" standalone="no"?><!DOCTYPE svg PUBLIC "-//W3C//DTD SVG 1.1//EN" "http://www.w3.org/Graphics/SVG/1.1/DTD/svg11.dtd"><svg t="1673270596276" class="icon" viewBox="0 0 1024 1024" version="1.1" xmlns="http://www.w3.org/2000/svg" p-id="5247" xmlns:xlink="http://www.w3.org/1999/xlink" width="300" height="300"><path d="M478.144 947.328c-120.448 0-176.96 0.128-297.408-0.064-104.384-0.128-146.432-42.56-146.496-147.264 0-195.008-0.128-389.952 0-584.96 0.064-92.224 44.48-137.792 137.152-137.984 247.04-0.576 430.144-0.64 677.184 0.064 95.104 0.256 140.992 47.36 141.056 141.696 0.128 196.032 0.128 392 0 588.032-0.064 95.872-44.16 140.096-140.992 140.416-123.456 0.384-246.976 0.064-370.496 0.064z m375.296-51.52c62.016-0.128 84.224-22.72 84.288-85.248v-596.992c0-62.528-22.208-85.312-84.16-85.312-248.96-0.128-433.984-0.128-682.944 0-62.016 0.064-84.224 22.72-84.288 85.248v596.992c0 62.592 22.208 85.248 84.16 85.312 123.456 0.192 182.976 0.064 306.432 0.064 125.44 0 251.008 0.128 376.512-0.064z" fill="#101317" p-id="5248"></path><path d="M594.176 358.912c0.576-26.24-2.432-50.88 8.768-74.048 27.264-56.576 77.952-56.896 130.624-57.024 49.024-0.128 94.272 7.232 114.304 57.6 19.776 49.664 20.864 103.296-0.576 152.256-25.984 59.456-82.368 58.048-136.64 57.28-46.912-0.704-86.464-13.632-108.224-59.584-11.968-25.216-6.912-52.032-8.256-76.48z m51.84 1.024c-0.384 76.544 6.144 82.944 83.328 82.944 7.104 0 14.208 0.128 21.312-0.064 32.832-1.024 53.44-14.656 56.128-44.096 5.12-56.512 6.208-99.84-26.752-114.048a58.112 58.112 0 0 0-20.736-3.84 1113.856 1113.856 0 0 0-67.008 0c-29.184 1.152-44.16 16.32-46.144 45.632-0.768 11.136-0.128 22.336-0.128 33.472z m-319.232 416.768c-58.176 0-52.288 0.064-110.464-0.064-9.152 0-18.496 0.256-27.456-1.28-13.12-2.24-23.488-9.6-23.872-23.808-0.384-15.744 10.24-25.6 24.896-25.664 135.68-0.576 207.296-0.576 342.976 0 13.312 0.064 23.104 8.768 23.424 23.488 0.384 16.32-10.112 24.832-24.576 25.92-23.36 1.664-46.848 1.28-70.336 1.344-44.8 0.192-89.728 0.064-134.592 0.064z m-121.792-109.376c-19.2 0-40.256-1.216-39.552-26.496 0.576-22.976 21.376-24.512 38.976-24.576 125.248-0.32 186.56-0.32 311.808-0.128 18.88 0.064 39.872 1.728 39.232 27.328-0.64 24.064-20.928 23.808-38.656 23.808-63.168 0.128-126.272 0.064-189.44 0.064h-122.368z" fill="#101317" p-id="5249"></path></svg>