<?xml version="1.0" standalone="no"?><!DOCTYPE svg PUBLIC "-//W3C//DTD SVG 1.1//EN" "http://www.w3.org/Graphics/SVG/1.1/DTD/svg11.dtd"><svg t="1675959865255" class="icon" viewBox="0 0 1024 1024" version="1.1" xmlns="http://www.w3.org/2000/svg" p-id="3246" xmlns:xlink="http://www.w3.org/1999/xlink" width="300" height="300"><path d="M320 307.2c6.4-95.2 84.8-172.8 180-178.4 111.2-6.4 204 81.6 204 192 0 105.6-85.6 192-192 192-110.4 0-199.2-93.6-192-205.6zM575.2 768c0-72.8 40.8-136.8 100.8-168.8C616 584 556 576 511.2 576 384 576 128 640 128 768v96c0 17.6 14.4 32 32 32h464c-30.4-33.6-48.8-78.4-48.8-128z m320.8-32h-96V640h-64v96H640v64h96v96h64v-96h96v-64z" p-id="3247"></path></svg>