<?xml version="1.0" standalone="no"?><!DOCTYPE svg PUBLIC "-//W3C//DTD SVG 1.1//EN" "http://www.w3.org/Graphics/SVG/1.1/DTD/svg11.dtd"><svg t="1676018380308" class="icon" viewBox="0 0 1024 1024" version="1.1" xmlns="http://www.w3.org/2000/svg" p-id="3291" xmlns:xlink="http://www.w3.org/1999/xlink" width="300" height="300"><path d="M512 62.93333333C264.42666667 62.93333333 62.93333333 264.42666667 62.93333333 512s201.49333333 449.06666667 449.06666667 449.06666667 449.06666667-201.49333333 449.06666667-449.06666667S759.57333333 62.93333333 512 62.93333333z m292.16 370.24L645.65333333 556.48l52.8 193.81333333c2.02666667 7.57333333-0.74666667 15.57333333-7.14666666 20.05333334-3.30666667 2.34666667-7.14666667 3.52-10.98666667 3.52-3.62666667 0-7.25333333-1.06666667-10.34666667-3.09333334L512 665.49333333l-157.97333333 105.38666667c-6.50666667 4.37333333-14.93333333 4.16-21.33333334-0.42666667-6.29333333-4.58666667-9.17333333-12.58666667-7.14666666-20.05333333l52.8-193.81333333-158.50666667-123.41333334c-6.29333333-4.90666667-8.85333333-13.33333333-6.18666667-20.8 2.56-7.57333333 9.70666667-12.69333333 17.70666667-12.69333333H424.53333333l70.08-175.36c5.65333333-14.18666667 29.01333333-14.18666667 34.77333334 0L599.46666667 399.68h193.17333333c8 0 15.14666667 5.12 17.70666667 12.69333333 2.66666667 7.57333333 0.10666667 15.89333333-6.18666667 20.8z" fill="#696969" p-id="3292"></path></svg>