<?xml version="1.0" standalone="no"?><!DOCTYPE svg PUBLIC "-//W3C//DTD SVG 1.1//EN" "http://www.w3.org/Graphics/SVG/1.1/DTD/svg11.dtd"><svg t="1676560793874" class="icon" viewBox="0 0 1024 1024" version="1.1" xmlns="http://www.w3.org/2000/svg" p-id="2195" xmlns:xlink="http://www.w3.org/1999/xlink" width="300" height="300"><path d="M853.333333 890.666667H213.12a42.602667 42.602667 0 0 1-42.453333-42.666667c0-23.594667 19.029333-42.666667 42.453333-42.666667H853.333333v85.333334zM341.333333 128.490667h170.666667v281.834666l-74.346667-44.608a21.376 21.376 0 0 0-21.973333 0L341.333333 410.325333V128.490667zM874.794667 85.333333H213.12A85.290667 85.290667 0 0 0 128 170.666667v682.666666c0 47.125333 38.08 85.333333 85.12 85.333334H874.666667c11.776 0 21.333333-9.578667 21.333333-21.525334V106.858667C896 94.976 886.378667 85.333333 874.794667 85.333333z" fill="#3D3D3D" p-id="2196"></path></svg>