<?xml version="1.0" standalone="no"?><!DOCTYPE svg PUBLIC "-//W3C//DTD SVG 1.1//EN" "http://www.w3.org/Graphics/SVG/1.1/DTD/svg11.dtd"><svg t="1674475024259" class="icon" viewBox="0 0 1024 1024" version="1.1" xmlns="http://www.w3.org/2000/svg" p-id="3995" xmlns:xlink="http://www.w3.org/1999/xlink" width="300" height="300"><path d="M627.4 262.5c28.5-10.6 58.7-16.2 89.8-16.2 31.9 0 63 5.8 92.1 17 0.6-6.1 1-12.4 1-18.7C810.3 144.9 729 64 628.7 64c-53.1 0-100.8 22.7-134 58.8 28.1 15.5 54.1 35.6 77.1 60 22.6 23.8 41.2 50.7 55.6 79.7z" p-id="3996"></path><path d="M367.1 777.5h56.4L401 713.9c134-25.3 235.8-149.4 235.8-298.7 0-167.5-128.2-303.4-286.4-303.4C192.2 111.9 64 247.7 64 415.2c0 147.9 99.9 271.1 232.1 297.9l-18.8 64.4h48.9l-8.1 27.6c-5.2 17.5 0 35.8 13.8 49.1 5.9 5.7 7 14 2.8 20.8l-37.3 59c-5.3 8.4-2 19.1 7.5 23.8 3.1 1.5 6.4 2.2 9.6 2.2 6.8 0 13.5-3.2 17.2-8.9l37.3-58.9c12.7-20 9.4-44.8-8.1-61.6-4.6-4.5-6.4-10.7-4.6-16.6l10.8-36.5z m-43.6-543.1c-0.4 0.1-44.1 10.6-82.3 42.2-51.7 42.9-69.8 101.7-53.8 174.7 2.8 12.9-5.3 25.8-18.3 28.6-1.8 0.4-3.5 0.6-5.2 0.6-11 0-20.9-7.6-23.4-18.8-25.2-114.6 24.2-183.9 70-221.9 46-38.1 96.4-50.7 102-52 12.9-3.1 25.8 5 28.8 17.9s-4.9 25.7-17.8 28.7z" p-id="3997"></path><path d="M960 530.2c0-142.3-108.7-257.7-242.8-257.7-27.7 0-54.3 4.9-79 14 16.2 40.2 24.7 83.8 24.7 128.8 0 87.8-32.3 170.3-91 232.5-14.4 15.2-29.9 28.7-46.3 40.5 35 47.7 85.5 82.1 143.4 94.5l-9.2 40.5h25.3v0.1l-2.1 7.2c-4.1 13.9 0 28.5 11 39.2 2.4 2.2 2.8 5.7 1.1 8.3l-26.2 41.1c-5.3 8.4-2 19.1 7.5 23.8 3.1 1.5 6.4 2.2 9.6 2.2 6.8 0 13.5-3.2 17.2-8.9l26.1-41.2c10.1-16 7.5-35.7-6.4-49.1-1.8-1.7-2.7-4.3-2-6.7l4.7-16H750l-10-36.5c123.4-12.3 220-122.5 220-256.6z m-183.5 174c-3.1 1.3-6.3 1.9-9.4 1.9-9.3 0-18.2-5.5-22.1-14.6-5.2-12.2 0.5-26.3 12.7-31.5 43.7-18.6 75.5-54.4 85.2-95.8 3-12.9 16-21.1 28.8-18 12.9 3 21 15.9 18 28.8-13.1 56.4-55.4 104.7-113.2 129.2z" p-id="3998"></path></svg>