<?xml version="1.0" standalone="no"?><!DOCTYPE svg PUBLIC "-//W3C//DTD SVG 1.1//EN" "http://www.w3.org/Graphics/SVG/1.1/DTD/svg11.dtd"><svg t="1672971251626" class="icon" viewBox="0 0 1029 1024" version="1.1" xmlns="http://www.w3.org/2000/svg" p-id="3652" xmlns:xlink="http://www.w3.org/1999/xlink" width="301.46484375" height="300"><path d="M728.064 420.864c-165.888 0-301.056 134.144-301.056 301.056s134.144 301.056 301.056 301.056 301.056-134.144 301.056-301.056-135.168-301.056-301.056-301.056zM701.44 890.88c-10.24 10.24-27.648 10.24-38.912 0l-21.504-21.504-128-128c-10.24-10.24-10.24-27.648 0-38.912l21.504-21.504c10.24-10.24 27.648-10.24 38.912 0l108.544 108.544 204.8-204.8c10.24-10.24 27.648-10.24 38.912 0l21.504 21.504c10.24 10.24 10.24 27.648 0 38.912l-245.76 245.76z" fill="#383838" p-id="3653"></path><path d="M328.704 720.896c0-220.16 179.2-399.36 399.36-399.36h17.408c1.024-10.24 2.048-20.48 2.048-29.696C747.52 132.096 617.472 2.048 457.728 2.048S167.936 132.096 167.936 291.84c0 114.688 66.56 214.016 163.84 261.12C143.36 589.824 0 756.736 0 955.392v64.512H462.848C380.928 947.2 328.704 839.68 328.704 720.896z" fill="#383838" p-id="3654"></path></svg>