<?xml version="1.0" standalone="no"?><!DOCTYPE svg PUBLIC "-//W3C//DTD SVG 1.1//EN" "http://www.w3.org/Graphics/SVG/1.1/DTD/svg11.dtd"><svg t="1672736583196" class="icon" viewBox="0 0 1024 1024" version="1.1" xmlns="http://www.w3.org/2000/svg" p-id="23127" xmlns:xlink="http://www.w3.org/1999/xlink" width="300" height="300"><path d="M881.28 88.32a128 128 0 0 0-91.52-38.4H176a128 128 0 0 0-88.96 44.16A140.16 140.16 0 0 0 51.2 192v648.32a138.24 138.24 0 0 0 41.6 92.16 128 128 0 0 0 92.16 38.4h289.28a41.6 41.6 0 0 0 28.8-12.8 48.64 48.64 0 0 0 0-64 47.36 47.36 0 0 0-33.28-14.08H180.48a34.56 34.56 0 0 1-24.32-14.08 44.8 44.8 0 0 1-10.88-33.92V184.32a44.16 44.16 0 0 1 12.8-28.8 32.64 32.64 0 0 1 26.24-10.88h609.28a32 32 0 0 1 24.32 14.08A49.28 49.28 0 0 1 832 192v243.2a46.08 46.08 0 0 0 46.72 40.32 46.72 46.72 0 0 0 46.72-46.08V180.48a140.16 140.16 0 0 0-44.16-92.16z" fill="#445365" p-id="23128"></path><path d="M794.88 131.84a56.32 56.32 0 0 1 46.72 56.96v243.84a33.92 33.92 0 0 0 40.32 26.88 33.28 33.28 0 0 0 28.16-32V181.12A123.52 123.52 0 0 0 789.76 64H177.28A123.52 123.52 0 0 0 64 192v647.68A123.52 123.52 0 0 0 184.96 960h287.36a34.56 34.56 0 0 0-4.48-69.12H179.2a55.68 55.68 0 0 1-46.72-58.88V183.04a53.12 53.12 0 0 1 51.84-51.2h610.56z" fill="#445365" p-id="23129"></path><path d="M650.24 224.64a47.36 47.36 0 0 0-33.28-14.08H249.6a44.16 44.16 0 0 0-28.8 15.36 46.08 46.08 0 0 0-11.52 30.08 46.72 46.72 0 0 0 13.44 33.28 46.08 46.08 0 0 0 33.28 16h367.36a46.08 46.08 0 0 0 28.8-15.36 48.64 48.64 0 0 0 0-64z" fill="#445365" p-id="23130"></path><path d="M650.24 256a34.56 34.56 0 0 0-33.92-34.56h-364.8a35.2 35.2 0 0 0-32.64 36.48 35.2 35.2 0 0 0 37.12 34.56h365.44a33.92 33.92 0 0 0 29.44-36.48zM650.24 408.32a47.36 47.36 0 0 0-33.28-14.08H249.6a42.24 42.24 0 0 0-28.8 16 44.8 44.8 0 0 0-11.52 30.72 42.24 42.24 0 0 0 13.44 32.64 41.6 41.6 0 0 0 33.28 14.72h367.36a40.32 40.32 0 0 0 28.8-15.36 44.8 44.8 0 0 0 11.52-30.72 47.36 47.36 0 0 0-13.44-33.92z" fill="#445365" p-id="23131"></path><path d="M650.24 441.6a34.56 34.56 0 0 0-33.92-34.56h-364.8a33.92 33.92 0 0 0-29.44 33.92 33.92 33.92 0 0 0 33.92 34.56h365.44a35.2 35.2 0 0 0 29.44-33.92zM933.76 776.96L928 768l-74.24-64a104.32 104.32 0 0 0 47.36-91.52 106.24 106.24 0 0 0-33.92-80 115.2 115.2 0 0 0-161.92 0 111.36 111.36 0 0 0-16 140.8 112.64 112.64 0 0 0 30.72 32l-74.88 64-7.68 9.6a64 64 0 0 0-37.76 64v64a64 64 0 0 0 21.12 49.28 67.2 67.2 0 0 0 50.56 19.84h229.76a71.04 71.04 0 0 0 51.2-19.84 64 64 0 0 0 21.12-49.28v-64a64 64 0 0 0-39.68-65.92z m-176-192a42.88 42.88 0 0 1 56.32 0 37.12 37.12 0 0 1 0 51.2 41.6 41.6 0 0 1-56.32 0 35.84 35.84 0 0 1 0-53.76z m64 192h-64l33.92-27.52z m75.52 128h-222.08v-52.48H896z" fill="#445365" p-id="23132"></path></svg>