<?xml version="1.0" standalone="no"?><!DOCTYPE svg PUBLIC "-//W3C//DTD SVG 1.1//EN" "http://www.w3.org/Graphics/SVG/1.1/DTD/svg11.dtd"><svg t="1672735671972" class="icon" viewBox="0 0 1024 1024" version="1.1" xmlns="http://www.w3.org/2000/svg" p-id="17793" xmlns:xlink="http://www.w3.org/1999/xlink" width="250" height="250"><path d="M521.644581 99.902439c84.917073 0 149.853659 64.936585 149.853659 149.853659s-64.936585 149.853659-149.853659 149.853658-149.853659-64.936585-149.853658-149.853658 69.931707-149.853659 149.853658-149.853659m0-99.902439c-139.863415 0-249.756098 109.892683-249.756097 249.756098s109.892683 249.756098 249.756097 249.756097 249.756098-109.892683 249.756098-249.756097-109.892683-249.756098-249.756098-249.756098zM406.756777 1024H147.010435c-74.926829 0-134.868293-59.941463-134.868293-139.863415V799.219512c0-124.878049 99.902439-224.780488 224.780488-224.780488H711.459216c29.970732 0 49.95122 19.980488 49.951219 49.95122s-19.980488 49.95122-49.951219 49.951219H236.92263C166.990923 674.341463 112.044581 734.282927 112.044581 799.219512v89.912195c0 19.980488 14.985366 39.960976 34.965854 39.960976h259.746342c29.970732 0 49.95122 19.980488 49.951219 49.951219s-19.980488 44.956098-49.951219 44.956098z" fill="#00D6D6" p-id="17794"></path><path d="M996.181167 729.287805c-19.980488-19.980488-49.95122-19.980488-69.931707 0l-174.829269 174.829268-109.892683-104.897561c-19.980488-19.980488-49.95122-19.980488-69.931707 0-19.980488 19.980488-19.980488 49.95122 0 69.931708l139.863415 139.863414s4.995122 4.995122 9.990244 4.995122 4.995122 4.995122 9.990243 4.995122h39.960976c4.995122 0 4.995122-4.995122 9.990244-4.995122s4.995122-4.995122 9.990244-4.995122l209.795122-209.795122c14.985366-19.980488 14.985366-49.95122-4.995122-69.931707z" fill="#00D6D6" p-id="17795"></path></svg>