<?xml version="1.0" standalone="no"?><!DOCTYPE svg PUBLIC "-//W3C//DTD SVG 1.1//EN" "http://www.w3.org/Graphics/SVG/1.1/DTD/svg11.dtd"><svg t="1673674541185" class="icon" viewBox="0 0 1024 1024" version="1.1" xmlns="http://www.w3.org/2000/svg" p-id="2223" xmlns:xlink="http://www.w3.org/1999/xlink" width="300" height="300"><path d="M802.133333 593.066667h-8.533333c-34.133333 0-68.266667-17.066667-93.866667-38.4-51.2 46.933333-140.8 46.933333-196.266666 0-51.2 46.933333-140.8 46.933333-192 0-51.2 46.933333-123.733333 51.2-179.2 17.066666C64 524.8 85.333333 439.466667 98.133333 384c0-8.533333 4.266667-17.066667 4.266667-21.333333l64-170.666667c17.066667-38.4 42.666667-85.333333 98.133333-85.333333h494.933334c72.533333 0 93.866667 72.533333 106.666666 98.133333l46.933334 157.866667c4.266667 8.533333 4.266667 17.066667 8.533333 25.6 17.066667 55.466667 34.133333 115.2-17.066667 166.4-34.133333 29.866667-72.533333 38.4-102.4 38.4z m-106.666666-128l42.666666 42.666666c17.066667 17.066667 38.4 25.6 59.733334 25.6 25.6 0 46.933333-8.533333 64-25.6 25.6-25.6 17.066667-55.466667 0-106.666666-4.266667-8.533333-4.266667-17.066667-8.533334-25.6l-42.666666-157.866667c-17.066667-51.2-34.133333-55.466667-51.2-55.466667H268.8c-21.333333 0-29.866667 17.066667-46.933333 51.2l-4.266667 8.533334-59.733333 153.6c0 4.266667-4.266667 12.8-4.266667 21.333333-17.066667 59.733333-21.333333 102.4 12.8 123.733333s81.066667 12.8 110.933333-17.066666l42.666667-42.666667 21.333333 34.133333c34.133333 46.933333 110.933333 46.933333 145.066667 0l25.6-34.133333 25.6 38.4c34.133333 51.2 110.933333 51.2 145.066667 0l12.8-34.133333zM729.6 921.6H294.4c-68.266667 0-119.466667-38.4-119.466667-89.6v-153.6c0-17.066667 12.8-29.866667 29.866667-29.866667s29.866667 12.8 29.866667 29.866667v153.6c0 17.066667 25.6 34.133333 59.733333 34.133333h435.2c34.133333 0 59.733333-17.066667 59.733333-34.133333v-153.6c0-17.066667 12.8-29.866667 29.866667-29.866667s29.866667 12.8 29.866667 29.866667v153.6c0 46.933333-55.466667 89.6-119.466667 89.6z" fill="#6A3906" p-id="2224"></path><path d="M810.666667 332.8c-12.8-51.2 0 0-29.866667-93.866667-4.266667-21.333333-8.533333-34.133333-25.6-42.666666-12.8-8.533333-34.133333-4.266667-42.666667-4.266667-132.266667 0-268.8 0-401.066666-4.266667-4.266667 0-21.333333-4.266667-34.133334 4.266667-25.6 12.8-34.133333 42.666667-34.133333 42.666667-8.533333 46.933333-21.333333 76.8-29.866667 98.133333-12.8 25.6-21.333333 55.466667-29.866666 81.066667-4.266667 12.8-12.8 29.866667-4.266667 46.933333 4.266667 8.533333 12.8 17.066667 17.066667 17.066667 8.533333 8.533333 21.333333 8.533333 21.333333 8.533333 12.8 4.266667 25.6 0 29.866667 0 38.4-4.266667 72.533333-51.2 76.8-55.466667 8.533333 12.8 25.6 38.4 55.466666 55.466667 8.533333 4.266667 21.333333 8.533333 38.4 8.533333s29.866667-8.533333 42.666667-21.333333c12.8-8.533333 29.866667-25.6 46.933333-51.2 4.266667 8.533333 12.8 38.4 46.933334 55.466667 8.533333 4.266667 21.333333 12.8 42.666666 8.533333 25.6 0 42.666667-17.066667 51.2-25.6l12.8-12.8c8.533333-8.533333 17.066667-21.333333 21.333334-25.6 17.066667 21.333333 29.866667 34.133333 42.666666 42.666667 21.333333 17.066667 29.866667 21.333333 34.133334 25.6 8.533333 4.266667 29.866667 12.8 55.466666 0 4.266667 0 21.333333-12.8 25.6-29.866667 4.266667-17.066667-4.266667-29.866667-12.8-51.2 0-4.266667 4.266667 4.266667-17.066666-76.8z" fill="#F5CB2B" p-id="2225"></path><path d="M571.733333 759.466667H469.333333c-12.8 0-21.333333-8.533333-21.333333-21.333334s8.533333-21.333333 21.333333-21.333333h102.4c12.8 0 21.333333 8.533333 21.333334 21.333333s-8.533333 21.333333-21.333334 21.333334z" fill="#6A3906" p-id="2226"></path><path d="M541.866667 686.933333v102.4c0 12.8-8.533333 21.333333-21.333334 21.333334s-21.333333-8.533333-21.333333-21.333334v-102.4c0-12.8 8.533333-21.333333 21.333333-21.333333s21.333333 12.8 21.333334 21.333333z" fill="#6A3906" p-id="2227"></path></svg>