<?xml version="1.0" standalone="no"?><!DOCTYPE svg PUBLIC "-//W3C//DTD SVG 1.1//EN" "http://www.w3.org/Graphics/SVG/1.1/DTD/svg11.dtd"><svg t="1672837089219" class="icon" viewBox="0 0 1024 1024" version="1.1" xmlns="http://www.w3.org/2000/svg" p-id="4822" xmlns:xlink="http://www.w3.org/1999/xlink" width="300" height="300"><path d="M896 0 128 0C57.6 0 0 57.6 0 128L0 896C0 966.4 57.6 1024 128 1024L896 1024C966.4 1024 1024 966.4 1024 896L1024 128C1024 57.6 966.4 0 896 0L896 0ZM256 128C326.4 128 384 185.6 384 256 384 326.4 326.4 384 256 384 185.6 384 128 326.4 128 256 128 185.6 185.6 128 256 128L256 128ZM64 960 64 838.4 179.2 684.8C224 627.2 294.4 627.2 339.2 678.4L563.2 953.6 64 953.6 64 960ZM960 960 640 960 512 793.6 723.2 524.8C768 467.2 838.4 467.2 883.2 524.8L966.4 633.6 966.4 960 960 960Z" fill="#666666" p-id="4823"></path></svg>