<?xml version="1.0" standalone="no"?><!DOCTYPE svg PUBLIC "-//W3C//DTD SVG 1.1//EN" "http://www.w3.org/Graphics/SVG/1.1/DTD/svg11.dtd"><svg t="1674914998368" class="icon" viewBox="0 0 1024 1024" version="1.1" xmlns="http://www.w3.org/2000/svg" p-id="3383" xmlns:xlink="http://www.w3.org/1999/xlink" width="300" height="300"><path d="M936.91357867 177.92805547c-7.21442133-6.13307733-16.81544533-8.732672-26.116096-7.04512l-231.7582336 41.70274133-59.18993067-19.90109867c-16.87552-5.67978667-34.865152 3.53348267-40.44117333 20.48-5.554176 16.94651733 3.49525333 35.25290667 20.250624 40.88354134l66.895872 22.48977066c1.55101867 0.51882667 3.14026667 0.90658133 4.74589866 1.18510934v262.48369493L539.03141547 499.023872c-11.255808-3.489792-23.166976 2.90542933-26.640384 14.25408-3.45156267 11.38141867 2.850816 23.45096533 14.11208533 26.94621867l144.79742293 45.08330666v270.61671254l-277.0599936-78.70327467V655.39386027c0-11.90570667-9.535488-21.55588267-21.315584-21.55588267s-21.315584 9.650176-21.315584 21.55588267v122.36772693l-213.12416426 33.83296V202.71704747c0-17.86402133-14.319616-32.33655467-31.965184-32.33655467-17.65102933 0-31.97064533 14.47253333-31.97064534 32.33655467v646.6863104c0 9.44810667 4.07415467 18.42653867 11.19573334 24.576 7.094272 6.13307733 16.52599467 8.86920533 25.72288 7.36187733l264.84954453-42.03588267 297.02772053 84.37213867c2.801664 0.79735467 5.718016 1.20149333 8.634368 1.20149333 1.91146667 0 3.82839467-0.180224 5.72347734-0.524288l234.41790293-43.14999466c15.19342933-2.78528 26.24170667-16.187392 26.24170667-31.801344V202.71704747c0.0032768-9.568256-4.18010453-18.644992-11.4491392-24.788992z m-52.48887467 644.49631573l-170.50391893 31.37536V587.54116267l170.50391893-30.015488v264.89869653z m0-308.66582187l-170.50391893 30.015488V271.98969173l170.50391893-30.670848V513.75854933zM216.90886827 370.91628373c10.44206933 20.94421333 106.5025536 157.8663936 135.6988416 199.33975894 5.996544 8.51421867 15.69041067 13.57141333 26.034176 13.57141333h0.09284266c10.38199467-0.02730667 20.07586133-5.144576 26.05056-13.72433067 29.097984-41.80104533 124.79802027-179.71718827 134.62295894-198.85370026 12.90513067-25.11121067 19.99940267-54.362112 19.99940266-82.35144534 0-101.0302976-81.27556267-183.22336427-181.15351893-183.22336426-99.8834176 0-181.15898027 82.19306667-181.15898027 183.22336426 0 27.967488 6.66282667 55.54176 19.81371734 81.985536v0.032768z m161.34526293-200.57402026c64.618496 0 117.2176896 53.18792533 117.2176896 118.55571626 0 17.547264-4.66397867 36.70562133-12.75767467 52.48341334-5.58148267 10.44206933-53.94705067 81.444864-104.21425493 154.03799893-46.14826667-66.02752-98.4252416-141.9575296-104.5037056-153.65024427-8.59613867-17.32334933-12.96520533-35.110912-12.96520533-52.871168 0-65.36779093 52.59264-118.55571627 117.22315093-118.55571626z m-26.63492267 165.2719616a52.75101867 52.75101867 0 0 0 53.280768 0c16.482304-9.62286933 26.63492267-27.41589333 26.63492267-46.67255467 0-19.2512-10.15261867-37.03876267-26.63492267-46.66709333a52.77723307 52.77723307 0 0 0-53.280768 0c-16.48776533 9.62833067-26.64584533 27.41589333-26.64584533 46.66709333-0.00109227 19.25666133 10.15698773 37.04968533 26.64584533 46.67255467z" fill="#006569" p-id="3384"></path></svg>