<?xml version="1.0" standalone="no"?><!DOCTYPE svg PUBLIC "-//W3C//DTD SVG 1.1//EN" "http://www.w3.org/Graphics/SVG/1.1/DTD/svg11.dtd"><svg t="1673511565086" class="icon" viewBox="0 0 1024 1024" version="1.1" xmlns="http://www.w3.org/2000/svg" p-id="2442" xmlns:xlink="http://www.w3.org/1999/xlink" width="300" height="300"><path d="M141.064542 1004.146939C71.056379 962.35102 73.146175 974.889796 73.146175 508.865306 73.146175 96.130612 73.146175 85.681633 95.089032 58.514286 140.019644 1.044898 148.378828 0 512.003318 0c370.938776 0 379.297959 1.044898 417.959183 65.828571 19.853061 31.346939 20.897959 55.379592 20.897959 444.081633 0 453.485714 0 453.485714-65.828571 493.191837-31.346939 19.853061-54.334694 20.897959-373.028571 20.897959-312.42449 0-341.681633-2.089796-370.938776-19.853061z m653.061225-163.004082v-26.122449H513.048216c-216.293878 0-282.122449 3.134694-286.302041 13.583674-12.538776 36.571429 0 38.661224 286.302041 38.661224h281.077551v-26.122449z m0-219.428571v-26.122449H513.048216c-216.293878 0-282.122449 3.134694-286.302041 13.583673-12.538776 36.571429 0 38.661224 286.302041 38.661225h281.077551v-26.122449z m0-219.428572v-26.122449H513.048216c-216.293878 0-282.122449 3.134694-286.302041 13.583674-12.538776 36.571429 0 38.661224 286.302041 38.661224h281.077551v-26.122449zM501.554338 182.857143v-26.122449H366.762501c-99.265306 0-136.881633 3.134694-140.016326 13.583673-11.493878 34.481633 4.179592 38.661224 140.016326 38.661225h134.791837v-26.122449z" fill="#D08953" p-id="2443"></path></svg>