<?xml version="1.0" standalone="no"?><!DOCTYPE svg PUBLIC "-//W3C//DTD SVG 1.1//EN" "http://www.w3.org/Graphics/SVG/1.1/DTD/svg11.dtd"><svg t="1672733622412" class="icon" viewBox="0 0 1024 1024" version="1.1" xmlns="http://www.w3.org/2000/svg" p-id="16794" xmlns:xlink="http://www.w3.org/1999/xlink" width="250" height="250"><path d="M559 470.9h137c26.9 0 48.6-22 47-48.8-1.5-24-21.6-43.2-45.9-43.2H560c-26.9 0-48.6 22-47 48.8 1.5 24 21.6 43.2 46 43.2M779.2 553.1H557.3c-24.4 0-44.4 20.7-44.4 46s20 46 44.4 46h221.9c24.4 0 44.4-20.7 44.4-46s-20-46-44.4-46M379 445.8c0-37.9-29-67-67-67-37.9 0-67 29-67 67s29 67 67 67 67-29 67-67M312 512.8c-62.5 0-111.6 42.4-111.6 93.8s223.2 51.3 223.2 0-49.1-93.8-111.6-93.8" p-id="16795"></path><path d="M966.6 97.8H57.4c-31.6 0-57.4 25.7-57.4 57v714.4c0 31.4 25.8 57 57.4 57h909.3c31.6 0 57.4-25.7 57.4-57V154.8c-0.1-31.4-25.9-57-57.5-57zM932 834.2H92V189.8h840v644.4z" p-id="16796"></path></svg>