<?xml version="1.0" standalone="no"?><!DOCTYPE svg PUBLIC "-//W3C//DTD SVG 1.1//EN" "http://www.w3.org/Graphics/SVG/1.1/DTD/svg11.dtd"><svg t="1672839745046" class="icon" viewBox="0 0 1168 1024" version="1.1" xmlns="http://www.w3.org/2000/svg" p-id="6877" xmlns:xlink="http://www.w3.org/1999/xlink" width="342.1875" height="300"><path d="M876.091639 547.99021a182.519091 182.519091 0 1 1-182.519092 182.519091 182.519091 182.519091 0 0 1 182.519092-182.519091m0-109.511455a292.030546 292.030546 0 1 0 292.030546 292.030546 292.030546 292.030546 0 0 0-292.030546-292.030546zM841.413011 15.034463L631.516056 224.931418a49.280155 49.280155 0 0 0 69.722293 70.087331L876.091639 120.165459l175.218328 174.85329a49.645193 49.645193 0 1 0 70.087331-70.087331L912.595457 15.034463a49.645193 49.645193 0 0 0-71.182446 0z" fill="#51C75B" p-id="6878"></path><path d="M821.70095 57.74393m54.755727 0l0 0q54.755727 0 54.755727 54.755727l0 373.069023q0 54.755727-54.755727 54.755728l0 0q-54.755727 0-54.755727-54.755728l0-373.069023q0-54.755727 54.755727-54.755727Z" fill="#51C75B" p-id="6879"></path><path d="M292.030546 112.134619a182.519091 182.519091 0 1 1-182.519091 182.519092 182.519091 182.519091 0 0 1 182.519091-182.519092m0-109.511455a292.030546 292.030546 0 1 0 292.030547 292.030547 292.030546 292.030546 0 0 0-292.030547-292.030547z" fill="#4C4A58" p-id="6880"></path><path d="M346.056197 1024m-54.755727 0l0 0q-54.755727 0-54.755728-54.755727l0-422.714216q0-54.755727 54.755728-54.755728l0 0q54.755727 0 54.755727 54.755728l0 422.714216q0 54.755727-54.755727 54.755727Z" fill="#4C4A58" p-id="6881"></path><path d="M35.773742 812.642892m0-54.755727l0 0q0-54.755727 54.755727-54.755728l401.542001 0q54.755727 0 54.755728 54.755728l0 0q0 54.755727-54.755728 54.755727l-401.542001 0q-54.755727 0-54.755727-54.755727Z" fill="#4C4A58" p-id="6882"></path></svg>