<?xml version="1.0" standalone="no"?><!DOCTYPE svg PUBLIC "-//W3C//DTD SVG 1.1//EN" "http://www.w3.org/Graphics/SVG/1.1/DTD/svg11.dtd"><svg t="1674474868995" class="icon" viewBox="0 0 1024 1024" version="1.1" xmlns="http://www.w3.org/2000/svg" p-id="2176" xmlns:xlink="http://www.w3.org/1999/xlink" width="300" height="300"><path d="M640 298.666667c11.093333 114.602667 47.018667 207.36 85.333333 298.666666H298.666667c37.461333-90.410667 72.533333-182.869333 85.333333-298.666666H341.12a42.325333 42.325333 0 0 1-42.325333-42.666667c0.042667-23.552 19.541333-42.666667 42.538666-42.666667h341.546667c23.466667 0 42.453333 18.944 42.453333 42.666667 0 23.552-19.456 42.666667-42.453333 42.666667H640zM256 725.333333H213.205333c-23.594667 0-42.666667-18.944-42.538666-42.666666 0.085333-23.552 19.157333-42.666667 42.88-42.666667h597.077333c23.594667 0 42.709333 18.944 42.709333 42.666667 0 23.552-18.986667 42.666667-42.709333 42.666666H768c89.770667 187.690667 213.333333 298.666667 213.333333 298.666667h-310.741333c-68.778667-159.573333-247.978667-160.512-314.154667 0H42.666667s123.008-107.605333 213.333333-298.666667z m298.666667-639.146666l34.133333 0.128c28.288 0.085333 51.2 19.413333 51.2 42.794666V170.666667H384c0.341333-14.378667 0.128-42.368 0.128-42.368-0.085333-23.552 22.613333-42.581333 51.029333-42.453334l34.176 0.085334V42.666667a42.666667 42.666667 0 0 1 85.333334 0v43.52z" fill="#3D3D3D" p-id="2177"></path></svg>