<?xml version="1.0" standalone="no"?><!DOCTYPE svg PUBLIC "-//W3C//DTD SVG 1.1//EN" "http://www.w3.org/Graphics/SVG/1.1/DTD/svg11.dtd"><svg t="1672732660932" class="icon" viewBox="0 0 1024 1024" version="1.1" xmlns="http://www.w3.org/2000/svg" p-id="3110" xmlns:xlink="http://www.w3.org/1999/xlink" width="130" height="130"><path d="M905.379232 462.050564L1023.853735 344.453649l-105.968861-177.419225-164.255392 40.442222-89.51407-50.38823L617.749464 0H405.884874l-46.073418 157.161548-89.51407 50.461363-164.255392-40.442223L0 344.453649l118.181974 117.523783v99.752607L0 679.400086l105.968862 177.419226 164.255392-40.515355 89.514069 50.461362 46.073418 157.161549h211.937723l46.073418-157.161549 89.587202-50.461362 164.18226 40.515355 106.041994-177.419226-118.181974-117.523783V462.050564zM341.382088 511.926868A170.544779 170.544779 0 0 1 511.926868 341.308956 170.544779 170.544779 0 0 1 682.544779 511.926868 170.544779 170.544779 0 0 1 511.926868 682.544779 170.544779 170.544779 0 0 1 341.308956 511.926868z" fill="#333333" p-id="3111"></path></svg>