<?xml version="1.0" standalone="no"?><!DOCTYPE svg PUBLIC "-//W3C//DTD SVG 1.1//EN" "http://www.w3.org/Graphics/SVG/1.1/DTD/svg11.dtd"><svg t="1672736641598" class="icon" viewBox="0 0 1024 1024" version="1.1" xmlns="http://www.w3.org/2000/svg" p-id="23777" xmlns:xlink="http://www.w3.org/1999/xlink" width="300" height="300"><path d="M861.44 1013.76H162.56A101.76 101.76 0 0 1 64 912.64V119.68A101.76 101.76 0 0 1 162.56 18.56h698.88a101.76 101.76 0 0 1 101.76 101.12v792.96a101.76 101.76 0 0 1-101.76 101.12zM162.56 94.08a25.6 25.6 0 0 0-26.24 25.6v792.96a25.6 25.6 0 0 0 26.24 25.6h698.88a25.6 25.6 0 0 0 26.24-25.6V119.68a25.6 25.6 0 0 0-26.24-25.6z" fill="#323333" p-id="23778"></path><path d="M750.08 280.96H262.4a37.76 37.76 0 0 1-37.76-37.76 38.4 38.4 0 0 1 37.76-37.76h487.68a37.76 37.76 0 0 1 37.76 37.76 37.12 37.12 0 0 1-37.76 37.76zM576 414.08H262.4a37.76 37.76 0 0 1-37.76-37.76 38.4 38.4 0 0 1 37.76-37.76H576a37.76 37.76 0 0 1 37.76 37.76 37.12 37.12 0 0 1-37.76 37.76zM407.68 539.52H262.4a32 32 0 0 1-32-32 32.64 32.64 0 0 1 32-32h145.28a32 32 0 0 1 32 32 32 32 0 0 1-32 32zM598.4 888.32h-6.4a172.16 172.16 0 0 1-67.84-37.12 21.12 21.12 0 0 1-8.32-19.2 23.68 23.68 0 0 1 8.96-18.56 21.12 21.12 0 0 0-22.4-35.84 24.96 24.96 0 0 1-33.92-15.36 163.2 163.2 0 0 1-7.04-47.36 186.24 186.24 0 0 1 5.76-44.16 26.24 26.24 0 0 1 12.16-15.36 22.4 22.4 0 0 1 19.2 0 17.92 17.92 0 0 0 7.04 0 21.12 21.12 0 0 0 14.72-37.76 26.24 26.24 0 0 1-8.32-18.56 28.16 28.16 0 0 1 7.68-17.92 186.24 186.24 0 0 1 72.96-40.32 23.04 23.04 0 0 1 29.44 16 22.4 22.4 0 0 0 20.48 15.36 20.48 20.48 0 0 0 20.48-15.36 23.68 23.68 0 0 1 29.44-16 179.2 179.2 0 0 1 75.52 40.32 21.76 21.76 0 0 1 7.68 17.92 23.04 23.04 0 0 1-7.68 17.92 21.12 21.12 0 0 0 14.72 37.76 17.92 17.92 0 0 0 7.04 0 22.4 22.4 0 0 1 19.2 0 26.24 26.24 0 0 1 12.16 15.36 186.24 186.24 0 0 1 5.76 44.16 167.68 167.68 0 0 1-6.4 44.8 23.04 23.04 0 0 1-11.52 15.36 22.4 22.4 0 0 1-19.2 0 21.12 21.12 0 0 0-29.44 20.48 20.48 20.48 0 0 0 7.68 16 25.6 25.6 0 0 1 7.68 17.28 23.68 23.68 0 0 1-8.32 17.92 186.24 186.24 0 0 1-69.12 39.68 24.32 24.32 0 0 1-19.84 0 23.68 23.68 0 0 1-10.88-16 21.76 21.76 0 0 0-42.24 0 21.12 21.12 0 0 1-10.88 16.64 23.04 23.04 0 0 1-16 1.92z m-24.32-64l10.88 5.76a68.48 68.48 0 0 1 58.24-32A69.12 69.12 0 0 1 704 832l14.08-7.68a64 64 0 0 1-6.4-28.8 69.76 69.76 0 0 1 64-69.76 81.92 81.92 0 0 0 0-12.16 69.76 69.76 0 0 0 0-11.52 69.76 69.76 0 0 1-64-69.76 76.16 76.16 0 0 1 6.4-29.44l-17.92-10.24a72.32 72.32 0 0 1-109.44 0l-19.2 10.24a64 64 0 0 1 4.48 30.08A69.76 69.76 0 0 1 512 704a104.32 104.32 0 0 0 0 23.04 71.68 71.68 0 0 1 71.68 70.4 64 64 0 0 1-7.68 30.08z" fill="#323333" p-id="23779"></path><path d="M640 778.24a64 64 0 1 1 64-64 64 64 0 0 1-64 64z m0-80.64a16.64 16.64 0 0 0-16.64 16.64c0 17.92 32.64 17.92 32.64 0a16 16 0 0 0-16-16.64z" fill="#323333" p-id="23780"></path></svg>