<?xml version="1.0" standalone="no"?><!DOCTYPE svg PUBLIC "-//W3C//DTD SVG 1.1//EN" "http://www.w3.org/Graphics/SVG/1.1/DTD/svg11.dtd"><svg t="1674724536113" class="icon" viewBox="0 0 1024 1024" version="1.1" xmlns="http://www.w3.org/2000/svg" p-id="2196" xmlns:xlink="http://www.w3.org/1999/xlink" width="300" height="300"><path d="M995.126867 635.046667l-360.08 360.08a53.333333 53.333333 0 0 1-71.333334 3.68l356.22-356.22a64 64 0 0 0 0-90.506667L495.8402 128h45.573333a52.986667 52.986667 0 0 1 37.713334 15.62l416 416a53.4 53.4 0 0 1 0 75.426667z m-128-75.426667l-416-416A52.986667 52.986667 0 0 0 413.413533 128H338.846867a361.706667 361.706667 0 0 1 2.486666 42.666667c0 42.713333-7.266667 83.2-20.473333 114-5.146667 12-10.746667 21.546667-16.48 29.08A85.286667 85.286667 0 1 1 256.0002 298.666667c6 0 16.573333-9.64 25.646667-30.806667C292.4602 242.62 298.666867 207.193333 298.666867 170.666667a314.76 314.76 0 0 0-2.873334-42.666667H216.206867c2.82-20.533333 7.653333-39.366667 14.146666-54.526667C239.426867 52.306667 250.0002 42.666667 256.0002 42.666667s16.573333 9.64 25.646667 30.806666c6.493333 15.16 11.333333 34 14.146666 54.526667h43.053334c-3.166667-26.56-9.286667-51.046667-18-71.333333C299.733533 7.333333 271.153533 0 256.0002 0s-43.733333 7.333333-64.86 56.666667c-8.666667 20.286667-14.82 44.773333-18 71.333333H53.333533a53.393333 53.393333 0 0 0-53.333333 53.333333v360.08a52.986667 52.986667 0 0 0 15.62 37.713334l416 416a53.333333 53.333333 0 0 0 75.426667 0l360.08-360.08a53.4 53.4 0 0 0 0-75.426667z" fill="#5C5C66" p-id="2197"></path></svg>