<?xml version="1.0" standalone="no"?><!DOCTYPE svg PUBLIC "-//W3C//DTD SVG 1.1//EN" "http://www.w3.org/Graphics/SVG/1.1/DTD/svg11.dtd"><svg t="1674479493942" class="icon" viewBox="0 0 1085 1024" version="1.1" xmlns="http://www.w3.org/2000/svg" p-id="4831" xmlns:xlink="http://www.w3.org/1999/xlink" width="317.87109375" height="300"><path d="M1024 903.499294 391.529412 903.499294 361.411765 903.499294 301.176471 903.499294C301.176471 870.249412 274.191059 843.264 240.941176 843.264 207.661176 843.264 180.705882 870.249412 180.705882 903.499294L120.470588 903.499294 90.352941 903.499294 60.235294 903.499294C26.955294 903.499294 0 876.544 0 843.264L0 180.705882C0 147.425882 26.955294 120.470588 60.235294 120.470588L90.352941 120.470588 120.470588 120.470588 180.705882 120.470588C180.705882 153.720471 207.661176 180.675765 240.941176 180.675765 274.191059 180.675765 301.176471 153.720471 301.176471 120.470588L361.411765 120.470588 391.529412 120.470588 1024 120.470588C1057.249882 120.470588 1084.235294 147.425882 1084.235294 180.705882L1084.235294 843.264C1084.235294 876.544 1057.249882 903.499294 1024 903.499294ZM1024 180.675765 344.696471 180.675765C344.696471 180.675765 344.696471 180.675765 344.696471 180.675765 323.824941 216.545882 285.424941 240.911059 240.941176 240.911059 196.457412 240.911059 158.057412 216.545882 137.185882 180.675765L60.235294 180.675765 60.235294 843.264 137.185882 843.264C158.057412 807.424 196.457412 783.028706 240.941176 783.028706 285.424941 783.028706 323.824941 807.424 344.696471 843.264L1024 843.264 1024 180.675765ZM496.941176 391.499294 888.470588 391.499294C896.783059 391.499294 903.529412 398.245647 903.529412 406.558118L903.529412 436.675765C903.529412 444.988235 896.783059 451.734588 888.470588 451.734588L496.941176 451.734588C488.628706 451.734588 481.882353 444.988235 481.882353 436.675765L481.882353 406.558118C481.882353 398.245647 488.628706 391.499294 496.941176 391.499294ZM496.941176 572.205176 888.470588 572.205176C896.783059 572.205176 903.529412 578.951529 903.529412 587.264L903.529412 617.411765C903.529412 625.724235 896.783059 632.440471 888.470588 632.440471L496.941176 632.440471C488.628706 632.440471 481.882353 625.724235 481.882353 617.411765L481.882353 587.264C481.882353 578.951529 488.628706 572.205176 496.941176 572.205176ZM256 722.793412 225.882353 722.793412C217.569882 722.793412 210.823529 716.047059 210.823529 707.734588L210.823529 557.146353C210.823529 548.833882 217.569882 542.087529 225.882353 542.087529L256 542.087529C264.312471 542.087529 271.058824 548.833882 271.058824 557.146353L271.058824 707.734588C271.058824 716.047059 264.312471 722.793412 256 722.793412ZM256 481.882353 225.882353 481.882353C217.569882 481.882353 210.823529 475.136 210.823529 466.823529L210.823529 316.205176C210.823529 307.892706 217.569882 301.146353 225.882353 301.146353L256 301.146353C264.312471 301.146353 271.058824 307.892706 271.058824 316.205176L271.058824 466.823529C271.058824 475.136 264.312471 481.882353 256 481.882353Z" fill="#272636" p-id="4832"></path></svg>