<?xml version="1.0" standalone="no"?><!DOCTYPE svg PUBLIC "-//W3C//DTD SVG 1.1//EN" "http://www.w3.org/Graphics/SVG/1.1/DTD/svg11.dtd"><svg t="1674915146725" class="icon" viewBox="0 0 1024 1024" version="1.1" xmlns="http://www.w3.org/2000/svg" p-id="5305" xmlns:xlink="http://www.w3.org/1999/xlink" width="300" height="300"><path d="M782.37696 122.88H262.02112C203.10016 122.88 163.84 171.8272 163.84 230.56384v450.31424c0 58.73664 39.26016 107.68384 98.18112 107.68384h520.43776c58.92096 0 98.18112-48.9472 98.18112-107.68384V230.56384C880.55808 171.8272 841.3184 122.88 782.37696 122.88zM349.3888 719.4624a53.28896 53.28896 0 0 1-53.37088-53.18656 53.22752 53.22752 0 0 1 53.37088-53.12512 53.26848 53.26848 0 0 1 53.3504 53.12512 53.248 53.248 0 0 1-53.3504 53.20704z m339.98848 0a53.28896 53.28896 0 0 1-53.37088-53.18656 53.22752 53.22752 0 0 1 53.37088-53.12512 53.26848 53.26848 0 0 1 53.37088 53.12512 53.28896 53.28896 0 0 1-53.37088 53.20704z m92.99968-224.5632c0 16.7936-12.65664 39.13728-29.42976 39.13728H291.45088c-16.85504 0-29.42976-22.4256-29.42976-39.13728V279.51104c0-16.7936 12.65664-39.1168 29.42976-39.1168h461.49632c16.85504 0 29.42976 22.3232 29.42976 39.1168v215.38816zM360.20224 837.50912c0 36.47488-24.7808 63.61088-61.35808 63.61088a66.1504 66.1504 0 0 1-66.2528-66.048v-26.89024h127.61088v29.32736z m441.83552 0c0 36.47488-24.7808 63.61088-61.35808 63.61088a66.1504 66.1504 0 0 1-66.2528-66.048v-26.89024h127.61088v29.32736z" fill="#000000" p-id="5306"></path></svg>