<?xml version="1.0" standalone="no"?><!DOCTYPE svg PUBLIC "-//W3C//DTD SVG 1.1//EN" "http://www.w3.org/Graphics/SVG/1.1/DTD/svg11.dtd"><svg t="1673270679837" class="icon" viewBox="0 0 1024 1024" version="1.1" xmlns="http://www.w3.org/2000/svg" p-id="7138" xmlns:xlink="http://www.w3.org/1999/xlink" width="300" height="300"><path d="M112.64 95.36a32 32 0 0 0-32 32v332.16a32 32 0 0 0 32 32h332.16a32 32 0 0 0 32-32V128a32 32 0 0 0-32-32z m300.16 332.16H144.64V159.36h268.16zM938.88 293.76a197.76 197.76 0 1 0-197.76 197.76 198.4 198.4 0 0 0 197.76-197.76z m-332.16 0a133.76 133.76 0 1 1 133.76 133.76 134.4 134.4 0 0 1-133.76-133.76zM99.84 928.64h365.44a32 32 0 0 0 27.52-48L310.4 563.84a33.28 33.28 0 0 0-55.68 0l-182.4 316.8a32 32 0 0 0 27.52 48z m182.4-284.16l128 220.16h-256zM832 552.96h-177.28a32 32 0 0 0-27.52 16l-89.6 155.52a32 32 0 0 0 0 32l89.6 155.52a32 32 0 0 0 27.52 16H832a32 32 0 0 0 27.52-16l89.6-155.52a32 32 0 0 0 0-32l-89.6-155.52a32 32 0 0 0-27.52-16z m-18.56 311.04h-140.16L601.6 741.12l71.68-123.52h142.72l71.68 123.52z" fill="#1B213F" p-id="7139"></path></svg>