<?xml version="1.0" standalone="no"?><!DOCTYPE svg PUBLIC "-//W3C//DTD SVG 1.1//EN" "http://www.w3.org/Graphics/SVG/1.1/DTD/svg11.dtd"><svg t="1673621206688" class="icon" viewBox="0 0 1024 1024" version="1.1" xmlns="http://www.w3.org/2000/svg" p-id="2812" xmlns:xlink="http://www.w3.org/1999/xlink" width="300" height="300"><path d="M870.4 1024H601.6a25.6 25.6 0 0 1 0-51.2h268.8c56.4608 0 102.4-45.9392 102.4-102.4V153.6c0-56.4608-45.9392-102.4-102.4-102.4H153.6c-56.4608 0-102.4 45.9392-102.4 102.4v652.8a25.6 25.6 0 0 1-51.2 0V153.6C0 68.9024 68.9024 0 153.6 0h716.8c84.6976 0 153.6 68.9024 153.6 153.6v716.8c0 84.6976-68.9024 153.6-153.6 153.6z" fill="#333333" p-id="2813"></path><path d="M998.4 320H25.6a25.6 25.6 0 0 1 0-51.2h972.8a25.6 25.6 0 0 1 0 51.2zM601.6 1024a25.6 25.6 0 0 1-18.0992-43.6992L757.4016 806.4 601.6 650.5984 235.6992 1016.4992a25.6 25.6 0 0 1-36.1984 0l-192-192a25.6 25.6 0 0 1 0-36.1984l192-192a25.6 25.6 0 1 1 36.1984 36.1984L61.8112 806.4 217.6 962.2016l365.9008-365.9008a25.6 25.6 0 0 1 36.1984 0l192 192a25.6 25.6 0 0 1 0 36.1984l-192 192A25.4976 25.4976 0 0 1 601.6 1024z" fill="#333333" p-id="2814"></path></svg>